<?xml version="1.0" standalone="no"?><!DOCTYPE svg PUBLIC "-//W3C//DTD SVG 1.1//EN" "http://www.w3.org/Graphics/SVG/1.1/DTD/svg11.dtd"><svg t="1555986111526" class="icon" style="" viewBox="0 0 1280 1024" version="1.1" xmlns="http://www.w3.org/2000/svg" p-id="4034" xmlns:xlink="http://www.w3.org/1999/xlink" width="250" height="200"><defs><style type="text/css"></style></defs><path d="M1031.936 273.3184v583.1168l-106.2144-250.6752V178.5216zM239.7568 307.456v548.9792l105.6896-250.6752V178.5216z" fill="#CCCCCC" p-id="4035"></path><path d="M239.7568 856.4352H1031.936l-106.2144-250.6752H345.4464z" fill="#E5E7E6" p-id="4036"></path><path d="M387.8528 342.656h67.2v451.9296h-67.2z" fill="#23B08D" p-id="4037"></path><path d="M522.2528 178.5216v286.1696h341.4016V178.5216H522.2528z m160.6656 260.7232H542.336v-43.6992h140.5696v43.6992z m0-63.8592H542.336v-43.6992h140.5696v43.6992z m0-63.8464H542.336v-43.6992h140.5696v43.6992z m0-63.8592H542.336v-43.6992h140.5696v43.6992z m160.6528 191.5648H702.9888v-43.6992h140.5824v43.6992z m0-63.8592H702.9888v-43.6992h140.5824v43.6992z m0-63.8464H702.9888v-43.6992h140.5824v43.6992z m0-63.8592H702.9888v-43.6992h140.5824v43.6992z" fill="#B3B3B3" p-id="4038"></path><path d="M455.0528 342.656l20.8-21.0432V755.456l-20.8 39.1168z" fill="#229373" p-id="4039"></path><path d="M387.8528 342.656h67.2l20.8-21.0432h-62.4z" fill="#5ED3AF" p-id="4040"></path><path d="M517.4528 528.3072h67.2v266.2656h-67.2z" fill="#29ABE2" p-id="4041"></path><path d="M584.6528 520.0512l20.8-12.7744V770.816l-20.8 23.7568z" fill="#2093BC" p-id="4042"></path><path d="M517.4528 528.3072h67.2l20.8-21.0304h-62.4z" fill="#50C3EA" p-id="4043"></path><path d="M659.3536 561.728h67.2v230.0032h-67.2z" fill="#F4C258" p-id="4044"></path><path d="M726.5536 554.5856l20.8-11.0336V771.2l-20.8 20.5312z" fill="#C9A40A" p-id="4045"></path><path d="M659.3536 561.728h67.2l20.8-18.176h-62.4z" fill="#F2D86B" p-id="4046"></path></svg>