<?xml version="1.0" standalone="no"?><!DOCTYPE svg PUBLIC "-//W3C//DTD SVG 1.1//EN" "http://www.w3.org/Graphics/SVG/1.1/DTD/svg11.dtd"><svg t="1557198276348" class="icon" style="" viewBox="0 0 1024 1024" version="1.1" xmlns="http://www.w3.org/2000/svg" p-id="3145" xmlns:xlink="http://www.w3.org/1999/xlink" width="200" height="200"><defs><style type="text/css"></style></defs><path d="M117.328 857.496a381.336 94.504 0 1 0 762.672 0 381.336 94.504 0 1 0-762.672 0Z" fill="#B8CBCD" p-id="3146"></path><path d="M627.984 135.328c-12.048-12.832-36.304-23.328-53.904-23.328h-310.072c-17.6 0-32 14.4-32 32v671.152c0 17.6 14.4 32.024 32 32.048l496 0.76c17.6 0.024 32-14.352 32-31.952v-474.016c0-17.6-9.856-42.496-21.904-55.328l-142.12-151.336z" fill="#B2EDA6" p-id="3147"></path><path d="M768 344h-184a16 16 0 0 1-16-16v-200a16 16 0 0 1 32 0v184h168a16 16 0 0 1 0 32zM350.28 376a16 16 0 0 1-13.376-24.768l104.76-160a16.008 16.008 0 0 1 26.776 17.528l-104.76 160a15.984 15.984 0 0 1-13.4 7.24z" fill="#3C663E" p-id="3148"></path><path d="M455.072 376a15.976 15.976 0 0 1-13.4-7.232l-104.76-160a16 16 0 0 1 26.776-17.528l104.76 160a16 16 0 0 1-13.376 24.76z" fill="#3C663E" p-id="3149"></path><path d="M320.008 424h384v336h-384z" fill="#FFFFFF" p-id="3150"></path><path d="M704 776h-384a16 16 0 0 1-16-16v-336a16 16 0 0 1 16-16h384a16 16 0 0 1 16 16v336a16 16 0 0 1-16 16z m-368-32h352v-304h-352v304z" fill="#3C663E" p-id="3151"></path><path d="M704.008 552h-384a16 16 0 0 1 0-32h384a16 16 0 0 1 0 32zM704.008 664h-384a16 16 0 0 1 0-32h384a16 16 0 0 1 0 32z" fill="#3C663E" p-id="3152"></path><path d="M520.008 768a16 16 0 0 1-16-16v-328a16 16 0 0 1 32 0v328a16 16 0 0 1-16 16z" fill="#3C663E" p-id="3153"></path><path d="M760.04 872h-0.072l-496-0.752c-30.856-0.048-55.968-25.192-55.968-56.048v-671.152c0-30.88 25.12-56 56-56h310.072c24.168 0 54.864 13.288 71.4 30.896l142.12 151.336c16.192 17.256 28.408 48.104 28.408 71.76v474.008c0 14.928-5.84 28.984-16.44 39.568a55.576 55.576 0 0 1-39.52 16.384z m-0.04-47.952c2.816 0 4.768-1.52 5.648-2.4s2.352-2.776 2.352-5.6v-474.008c0-11.56-7.488-30.472-15.4-38.904l-142.12-151.336v-0.008c-7.464-7.952-25.504-15.752-36.408-15.752H264c-4.336 0-8 3.664-8 8v671.152c0 4.352 3.64 8.84 8 8.848l496 0.008z" fill="#3C663E" p-id="3154"></path></svg>