<?xml version="1.0" standalone="no"?><!DOCTYPE svg PUBLIC "-//W3C//DTD SVG 1.1//EN" "http://www.w3.org/Graphics/SVG/1.1/DTD/svg11.dtd"><svg t="1563430074494" class="icon" viewBox="0 0 1091 1024" version="1.1" xmlns="http://www.w3.org/2000/svg" p-id="9628" xmlns:xlink="http://www.w3.org/1999/xlink" width="213.0859375" height="200"><defs><style type="text/css"></style></defs><path d="M282.376846 743.920904a325.509934 325.509934 0 1 0 458.83567-461.840552 325.509934 325.509934 0 1 0-458.83567 461.840552Z" fill="#E9EAEB" p-id="9629"></path><path d="M535.735099 652.376159c-9.49404-27.125828-35.263576-44.757616-63.745695-44.757616h-94.940397v-94.940397l27.125827 27.125828h94.940398c62.389404 0 54.251656-67.81457 54.251655-67.81457h-94.940397l-94.940397-94.940397h-54.251656c-29.838411 0-54.251656 24.413245-54.251656 54.251655v203.443709c0 44.757616 36.619868 81.377483 81.377484 81.377483h122.066225l81.377484 162.754967h74.596026l-78.664901-226.500662z" fill="#A3D4FF" p-id="9630"></path><path d="M349.923179 335.003974c-37.976159 0-67.81457-31.194702-67.81457-69.170861v-23.056954c0-37.976159 29.838411-69.170861 67.81457-69.170861s67.81457 31.194702 67.814569 69.170861v23.056954c0 37.976159-31.194702 69.170861-67.814569 69.170861z" fill="#FFFFFF" p-id="9631"></path><path d="M349.923179 348.566887c-44.757616 0-81.377483-36.619868-81.377484-82.733774v-23.056954c0-46.113907 36.619868-82.733775 81.377484-82.733775s81.377483 36.619868 81.377483 82.733775v23.056954c0 44.757616-36.619868 82.733775-81.377483 82.733774z m0-161.398675c-29.838411 0-54.251656 24.413245-54.251656 55.607947v23.056954c0 31.194702 24.413245 55.607947 54.251656 55.607947s54.251656-24.413245 54.251655-55.607947v-23.056954c0-31.194702-24.413245-55.607947-54.251655-55.607947zM377.049007 526.24106h474.701986v27.125827h-474.701986z" fill="#2A5082" p-id="9632"></path><path d="M675.433113 539.803974h-27.125828v-40.688742h-67.81457v-27.125828h94.940398zM729.684768 539.803974h-27.125828v-67.81457h81.377484v-135.629139h-54.251656v-27.125828h81.377484v189.880795h-81.377484z" fill="#2A5082" p-id="9633"></path><path d="M716.121854 431.300662h-40.688741v-284.821192h40.688741c14.919205 0 27.125828 12.206623 27.125828 27.125828v230.569536c0 14.919205-12.206623 27.125828-27.125828 27.125828z" fill="#FFFFFF" p-id="9634"></path><path d="M716.121854 444.863576h-54.251655v-311.94702h54.251655c23.056954 0 40.688742 17.631788 40.688742 40.688742v230.569536c0 21.700662-18.988079 40.688742-40.688742 40.688742z m-27.125828-27.125828h27.125828c8.137748 0 13.562914-5.425166 13.562914-13.562914v-230.569536c0-8.137748-5.425166-13.562914-13.562914-13.562914h-27.125828v257.695364zM309.234437 797.499338h27.125828v81.377483h-27.125828zM241.419868 851.750993h27.125827v27.125828h-27.125827zM377.049007 851.750993h27.125827v27.125828h-27.125827zM527.597351 884.301987l-77.308609-154.617219h-113.928477c-52.895364 0-94.940397-42.045033-94.940397-94.940397v-203.443709c0-37.976159 29.838411-67.81457 67.814569-67.814569h59.676821l94.940398 94.940397h101.721854l1.356291 12.206623c0 1.356291 4.068874 37.976159-17.631788 62.389404-12.206623 13.562914-28.482119 20.344371-50.182781 20.34437h-100.365563L311.94702 467.92053l18.988079-18.98808 77.30861 77.30861h89.515231c13.562914 0 23.056954-4.068874 29.838411-10.850332 8.137748-8.137748 9.49404-20.344371 10.850331-29.83841h-86.802649l-94.940397-94.940397h-48.82649c-23.056954 0-40.688742 17.631788-40.688742 40.688741v203.443709c0 37.976159 29.838411 67.81457 67.81457 67.814569h130.203973l85.446358 170.892716-23.056954 10.850331z" fill="#2A5082" p-id="9635"></path><path d="M602.193377 882.945695l-78.6649-226.500662c-8.137748-21.700662-28.482119-36.619868-51.539073-36.619867h-108.503311v-108.503312h27.125828v81.377484h81.377483c33.907285 0 65.101987 21.700662 77.308609 54.251655l78.664901 226.500663-25.769537 9.494039zM431.300662 783.936424h-122.066225c-67.81457 0-122.066225-54.251656-122.066225-122.066225v-257.695365h27.125828v257.695365c0 52.895364 42.045033 94.940397 94.940397 94.940397h122.066225v27.125828z" fill="#2A5082" p-id="9636"></path><path d="M339.072848 670.007947l-36.619868-48.82649h-101.721854v-27.125828h115.284768l43.401325 59.676821zM878.876821 526.24106h27.125828v27.125827h-27.125828zM295.671523 851.750993h54.251656v27.125828h-54.251656z" fill="#2A5082" p-id="9637"></path></svg>