<?xml version="1.0" standalone="no"?><!DOCTYPE svg PUBLIC "-//W3C//DTD SVG 1.1//EN" "http://www.w3.org/Graphics/SVG/1.1/DTD/svg11.dtd"><svg t="1551082151603" class="icon" style="" viewBox="0 0 1024 1024" version="1.1" xmlns="http://www.w3.org/2000/svg" p-id="2574" xmlns:xlink="http://www.w3.org/1999/xlink" width="200" height="200"><defs><style type="text/css"></style></defs><path d="M827.392 848.384a46.08 46.08 0 0 1-46.08-46.08V221.866667a80.213333 80.213333 0 0 0-80.213333-80.042667h-442.026667a17.066667 17.066667 0 0 0-17.066667 17.066667v303.786666a17.066667 17.066667 0 0 0 17.066667 17.066667 93.354667 93.354667 0 0 1 93.354667 93.184v51.2a17.066667 17.066667 0 0 0 5.973333 12.970667 17.066667 17.066667 0 0 0 13.653333 3.925333 44.032 44.032 0 0 1 6.656 0 42.666667 42.666667 0 0 1 42.666667 42.666667 162.133333 162.133333 0 0 1-85.333333 142.336 17.066667 17.066667 0 0 0-7.338667 22.016 43.178667 43.178667 0 0 1 3.754667 17.066666 17.066667 17.066667 0 0 0 17.066666 17.066667h477.866667a17.066667 17.066667 0 0 0 0-34.133333z" fill="#FFF6E6" p-id="2575"></path><path d="M827.392 848.384a46.08 46.08 0 0 1-46.08-46.08V221.866667a79.530667 79.530667 0 0 0-6.656-31.744l-17.066667 2.901333a62.293333 62.293333 0 0 0-55.637333-34.133333h-63.146667v86.186666a55.808 55.808 0 0 1 54.954667 64c-19.456 130.389333-88.405333 420.693333-321.706667 492.202667a159.914667 159.914667 0 0 1-34.133333 24.917333 17.066667 17.066667 0 0 0-8.021333 22.357334 42.666667 42.666667 0 0 1 3.754666 17.92 17.066667 17.066667 0 0 0 17.066667 17.066666h477.866667a17.066667 17.066667 0 0 0 0-34.133333z" fill="#FFEBCC" p-id="2576"></path><path d="M764.245333 713.898667V802.133333a63.146667 63.146667 0 0 0 126.293334 0v-88.234666zM195.925333 221.866667v88.405333h442.026667V221.866667a63.146667 63.146667 0 0 1 63.146667-62.976h-442.026667a63.146667 63.146667 0 0 0-63.146667 62.976z" fill="#FFDEAD" p-id="2577"></path><path d="M208.554667 522.410667l101.205333 0 0 210.944-101.205333 0 0-210.944Z" fill="#EDF4FF" p-id="2578"></path><path d="M259.072 676.864a51.2 51.2 0 0 1-51.2-51.2V682.666667a51.2 51.2 0 0 0 101.205333 0v-56.32a51.2 51.2 0 0 1-50.005333 50.517333z" fill="#D8E3F0" p-id="2579"></path><path d="M326.826667 682.666667v-109.738667a68.266667 68.266667 0 0 0-135.338667 0V682.666667a68.266667 68.266667 0 0 0 135.338667 0z m-101.205334 0v-109.738667a34.133333 34.133333 0 0 1 67.072 0V682.666667a34.133333 34.133333 0 0 1-67.072 0z" fill="#3D3D63" p-id="2580"></path><path d="M290.133333 848.384h-14.165333V819.2a136.533333 136.533333 0 0 0 119.466667-135.338667 17.066667 17.066667 0 0 0-34.133334 0 102.4 102.4 0 0 1-204.8 0 17.066667 17.066667 0 0 0-34.133333 0 136.533333 136.533333 0 0 0 119.466667 135.338667v29.354667h-13.994667a17.066667 17.066667 0 1 0 0 34.133333H290.133333a17.066667 17.066667 0 0 0 0-34.133333zM392.533333 444.757333h147.285334a17.066667 17.066667 0 0 0 0-34.133333H392.533333a17.066667 17.066667 0 0 0 0 34.133333zM631.466667 691.029333h-59.733334a17.066667 17.066667 0 0 0 0 34.133334H631.466667a17.066667 17.066667 0 0 0 0-34.133334zM392.533333 538.282667h238.933334a17.066667 17.066667 0 0 0 0-34.133334H392.533333a17.066667 17.066667 0 1 0 0 34.133334zM392.533333 631.466667h238.933334a17.066667 17.066667 0 0 0 0-34.133334H392.533333a17.066667 17.066667 0 1 0 0 34.133334z" fill="#3D3D63" p-id="2581"></path><path d="M890.538667 699.733333h-109.226667V221.866667a80.384 80.384 0 0 0-80.213333-80.213334h-442.026667a80.384 80.384 0 0 0-80.213333 80.213334v88.405333a17.066667 17.066667 0 0 0 17.066666 17.066667h46.08v136.533333a17.066667 17.066667 0 0 0 34.133334 0v-136.533333h361.813333a17.066667 17.066667 0 0 0 17.066667-17.066667V221.866667a46.08 46.08 0 1 1 92.16 0v580.266666a79.872 79.872 0 0 0 14.506666 46.08H350.037333a17.066667 17.066667 0 1 0 0 34.133334h477.866667a80.384 80.384 0 0 0 80.213333-80.213334v-85.333333a17.066667 17.066667 0 0 0-17.578666-17.066667z m-269.653334-477.866666v71.338666h-407.893333V221.866667a46.250667 46.250667 0 0 1 46.08-46.08h375.466667a81.066667 81.066667 0 0 0-13.653334 46.08z m206.506667 627.029333a46.08 46.08 0 0 1-46.08-46.08V733.866667h92.16v68.266666a46.08 46.08 0 0 1-46.08 46.250667z" fill="#3D3D63" p-id="2582"></path></svg>