<?xml version="1.0" standalone="no"?><!DOCTYPE svg PUBLIC "-//W3C//DTD SVG 1.1//EN" "http://www.w3.org/Graphics/SVG/1.1/DTD/svg11.dtd"><svg t="1551063612624" class="icon" style="" viewBox="0 0 1024 1024" version="1.1" xmlns="http://www.w3.org/2000/svg" p-id="21128" xmlns:xlink="http://www.w3.org/1999/xlink" width="200" height="200"><defs><style type="text/css"></style></defs><path d="M962.314 416.614 571.976 110.512c-33.376-26.408-85.672-26.378-118.988 0L65.614 416.676c-13.234 10.484-15.496 29.708-5.044 42.942s29.708 15.496 42.944 5.044l12.532-9.902 0 372.96c0 52.48 54.374 91.694 103.032 91.694l611.288 0c48.048 0 80.354-36.86 80.354-91.694L910.72 453.842l13.846 10.85c5.624 4.4 12.226 6.51 18.828 6.51 9.078 0 18.064-4.002 24.084-11.706C977.902 446.232 975.578 427.006 962.314 416.614zM597.41 794.464l0 63.818-53.432 0-61.128 0-51.576 0 0-63.818 0-103.448c0-35.546 19.116-73.782 82.11-73.782 63.024 0 84.026 38.236 84.026 73.782L597.41 794.464z" p-id="21129" fill="#1296db"></path></svg>