<?xml version="1.0" standalone="no"?><!DOCTYPE svg PUBLIC "-//W3C//DTD SVG 1.1//EN" "http://www.w3.org/Graphics/SVG/1.1/DTD/svg11.dtd"><svg t="1551063623732" class="icon" style="" viewBox="0 0 1024 1024" version="1.1" xmlns="http://www.w3.org/2000/svg" p-id="21448" xmlns:xlink="http://www.w3.org/1999/xlink" width="200" height="200"><defs><style type="text/css"></style></defs><path d="M515.998 859.612l-76.534 0-210.458 114.804L229.006 763.962C124.092 690.314 56.8 584.618 56.8 457.796c0-221.898 205.598-401.8 459.2-401.8 253.606 0 459.204 179.9 459.204 401.8C975.218 679.734 769.624 859.612 515.998 859.612L515.998 859.612 515.998 859.612zM515.998 109.38c-221.898 0-405.834 158.202-405.834 348.416 0 116.718 70.634 224.71 174.246 286.994l0 131.566 155.032-74.144 76.538 2c221.898 0 405.838-156.202 405.838-346.416C921.836 267.564 737.902 109.38 515.998 109.38L515.998 109.38 515.998 109.38zM745.63 515.196c-31.724 0-57.422-25.694-57.422-57.418s25.698-57.422 57.422-57.422c31.686 0 57.384 25.698 57.384 57.422S777.316 515.196 745.63 515.196L745.63 515.196 745.63 515.196zM515.998 515.196c-31.724 0-57.418-25.694-57.418-57.418s25.694-57.422 57.418-57.422 57.422 25.698 57.422 57.422S547.722 515.196 515.998 515.196L515.998 515.196 515.998 515.196zM286.392 515.196c-31.69 0-57.386-25.694-57.386-57.4 0-31.708 25.698-57.422 57.386-57.422 31.724 0 57.418 25.698 57.418 57.422C343.81 489.518 318.094 515.196 286.392 515.196L286.392 515.196 286.392 515.196z" p-id="21449" fill="#707070"></path></svg>