<?xml version="1.0" standalone="no"?><!DOCTYPE svg PUBLIC "-//W3C//DTD SVG 1.1//EN" "http://www.w3.org/Graphics/SVG/1.1/DTD/svg11.dtd"><svg t="1552037640989" class="icon" style="" viewBox="0 0 1024 1024" version="1.1" xmlns="http://www.w3.org/2000/svg" p-id="10028" xmlns:xlink="http://www.w3.org/1999/xlink" width="200" height="200"><defs><style type="text/css"></style></defs><path d="M514.2 98.2C285.5 98.2 99.4 284.3 99.4 513c0 23.9 2.6 48.2 6.5 71 0 0.1 0.2 0.1 0.3 0.2 1.7 5.8 6.8 10.1 13.1 10.1 7.6 0 13.8-6.2 13.8-13.8 0-0.5-0.2-0.9-0.3-1.3l0.2-0.1c-3.7-21.5-6-43.5-6-66 0-213.8 173.4-387.2 387.2-387.2s387.2 173.4 387.2 387.2S728 900.3 514.2 900.3c-142.9 0-267.4-77.6-334.5-192.8 0-0.1-0.1-0.1-0.1-0.2l-0.6-0.9c-2.3-4.3-6.8-7.4-12-7.4-7.6 0-13.8 6.2-13.8 13.8 0 3 1.2 5.6 2.8 7.9l-0.2 0.1c71.9 123.6 205.5 207.1 358.5 207.1 228.7 0 414.8-186.1 414.8-414.8S743 98.2 514.2 98.2z" fill="#1296db" p-id="10029"></path><path d="M701.3 413.1L481.8 632.6c-5.4 5.4-14.2 5.4-19.6 0-5.4-5.4-5.4-14.2 0-19.6l219.5-219.5c5.4-5.4 14.2-5.4 19.6 0 5.4 5.5 5.4 14.2 0 19.6z" fill="#1296db" p-id="10030"></path><path d="M462.2 632.6L327.1 497.5c-5.4-5.4-5.4-14.2 0-19.6 5.4-5.4 14.2-5.4 19.6 0L481.8 613c5.4 5.4 5.4 14.2 0 19.6-5.4 5.4-14.2 5.4-19.6 0z" fill="#1296db" p-id="10031"></path></svg>