<?xml version="1.0" standalone="no"?><!DOCTYPE svg PUBLIC "-//W3C//DTD SVG 1.1//EN" "http://www.w3.org/Graphics/SVG/1.1/DTD/svg11.dtd"><svg t="1551063593705" class="icon" style="" viewBox="0 0 1024 1024" version="1.1" xmlns="http://www.w3.org/2000/svg" p-id="20610" xmlns:xlink="http://www.w3.org/1999/xlink" width="200" height="200"><defs><style type="text/css"></style></defs><path d="M779.58 186.744l-74.21 0L705.37 134.62l-74.178 0c-22.574-31.03-64.126-52.126-112.238-52.126-48.11 0-89.662 21.096-112.236 52.126l-74.18 0 0 52.124-74.21 0c-57.574 0-104.248 46.676-104.248 104.254l0 521.248c0 57.578 46.674 104.248 104.248 104.248L779.58 916.494c57.576 0 104.25-46.67 104.25-104.248L883.83 291C883.83 233.42 837.156 186.744 779.58 186.744zM388.646 186.744l57.916 0c0-28.786 32.414-52.124 72.396-52.124 39.984 0 72.396 23.338 72.396 52.124l57.916 0L649.27 291 388.646 291 388.646 186.744zM827.728 806.28c0 28.786-23.336 52.126-52.126 52.126L262.308 858.406c-28.788 0-52.122-23.34-52.122-52.126l0-511.302c0-28.786 23.336-52.126 52.122-52.126l70.232 0 0 100.272 372.832 0 0-100.272 70.23 0c28.788 0 52.126 23.34 52.126 52.126L827.728 806.28zM701.392 707.994 336.518 707.994c-14.392 0-26.062 11.67-26.062 26.064 0 14.392 11.668 26.062 26.062 26.062l364.874 0c14.396 0 26.064-11.67 26.064-26.062C727.456 719.664 715.788 707.994 701.392 707.994zM701.392 447.37 336.518 447.37c-14.392 0-26.062 11.67-26.062 26.066 0 14.39 11.668 26.062 26.062 26.062l364.874 0c14.396 0 26.064-11.672 26.064-26.062C727.456 459.04 715.788 447.37 701.392 447.37zM701.392 577.682 336.518 577.682c-14.392 0-26.062 11.672-26.062 26.066 0 14.392 11.668 26.062 26.062 26.062l364.874 0c14.396 0 26.064-11.67 26.064-26.062C727.456 589.354 715.788 577.682 701.392 577.682z" p-id="20611" fill="#707070"></path></svg>