<?xml version="1.0" standalone="no"?><!DOCTYPE svg PUBLIC "-//W3C//DTD SVG 1.1//EN" "http://www.w3.org/Graphics/SVG/1.1/DTD/svg11.dtd"><svg t="1551063601281" class="icon" style="" viewBox="0 0 1024 1024" version="1.1" xmlns="http://www.w3.org/2000/svg" p-id="20770" xmlns:xlink="http://www.w3.org/1999/xlink" width="200" height="200"><defs><style type="text/css"></style></defs><path d="M704.926 135.038c0 17.324 0 34.652 0 51.976 77.95-0.538 125.264-4.044 158.294 42.44 24.072 33.878 20.026 74.57 20.026 131.608 0 81.214 0 162.452 0 243.666 0 51.336 0 102.686 0 154.02 0.002 27.356 2.782 60.274-3.814 82.018-12.238 40.348-42.312 67.076-87.252 74.864-49.104 0.158-98.224 0.318-147.328 0.476-95.19 0-190.408 0-285.596 0-25.744 0-51.496 0-77.24 0-13.188 0-28.342 1.332-40.05-0.954-39.74-7.76-67.702-31.28-81.054-65.328-7.41-18.896-6.676-45.132-6.674-72.004 0-26.86 0-53.728 0-80.586 0-105.53 0-211.094 0-316.624 0-23.362 0-46.734 0-70.096 0-14.14-0.954-29.352 1.908-41.008 4.554-18.552 12.636-33.416 22.886-46.254 32.8-41.084 81.308-36.38 153.526-36.24 0-17.324 0-34.652 0-51.976 24.632 0 49.27 0 73.902 0 25.894-37.364 91.952-65.65 155.91-46.254 21.504 6.522 38.416 17.122 53.878 29.564 4.926 5.562 9.854 11.126 14.78 16.69C655.656 135.038 680.294 135.038 704.926 135.038zM388.338 187.014c0 34.806 0 69.622 0 104.428 86.926 0 173.878 0 260.804 0 0-34.806 0-69.622 0-104.428-19.388 0-38.78 0-58.168 0 0.076-35.242-47.466-59.356-88.206-51.022-29.38 6.01-52.93 19.26-56.738 51.022C426.802 187.014 407.568 187.014 388.338 187.014zM331.6 447.848c-5.332 2.46-10.854 3.428-14.304 7.63-12.094 14.732-5.508 37.136 10.49 42.916 6.6 2.384 18 0.956 26.224 0.954 22.248 0 44.502 0 66.75 0 71.83 0 143.68 0 215.508 0 37.118 0.004 84.556 9.72 90.59-22.888 7.082-38.268-57.4-28.614-90.114-28.61C535.04 447.848 433.306 447.848 331.6 447.848zM334.462 577.548c-6.284 2.552-11.102 2.934-15.734 6.676-14.212 11.482-7.548 37.318 6.676 43.392 7.068 3.018 19.244 1.91 29.084 1.908 21.136 0 42.278 0 63.412 0 72.782 0 145.588 0 218.37 0 36.234 0.004 84.372 9.346 90.59-21.934 7.826-39.366-55.962-30.044-89.16-30.042C536.63 577.548 435.53 577.548 334.462 577.548zM333.984 707.728c-5.96 2.532-10.784 3.062-15.258 6.676-14.212 11.482-7.548 37.318 6.676 43.392 7.068 3.018 19.244 1.91 29.084 1.908 21.136 0 42.278 0 63.412 0 72.782 0 145.588 0 218.37 0 36.22 0.004 84.376 9.326 90.59-21.934 7.844-39.456-56.37-30.044-89.636-30.042C536.154 707.728 435.054 707.728 333.984 707.728z" p-id="20771" fill="#1296db"></path></svg>