<?xml version="1.0" standalone="no"?><!DOCTYPE svg PUBLIC "-//W3C//DTD SVG 1.1//EN" "http://www.w3.org/Graphics/SVG/1.1/DTD/svg11.dtd"><svg t="1551063570544" class="icon" style="" viewBox="0 0 1024 1024" version="1.1" xmlns="http://www.w3.org/2000/svg" p-id="20214" xmlns:xlink="http://www.w3.org/1999/xlink" width="200" height="200"><defs><style type="text/css"></style></defs><path d="M515.522 88.052c24.726-0.296 47.752 0.566 68.164 5.084 115.594 25.586 196.496 95.762 236.606 196.422 7.62 19.124 12.406 39.614 17.098 61.93 8.212 39.052 4.2 91.198-4.622 125.71-17.728 69.366-54.314 128.23-102.822 166.612-14.256 11.28-28.42 23.2-45.056 32.12 0.154 0.232 0.308 0.462 0.462 0.694 4.544 3.08 9.088 6.162 13.632 9.244 9.466 6.676 18.898 13.23 28.19 19.874 42.296 30.246 80.104 65.92 98.894 119.702 4.386 12.554 4.936 25.378 7.394 40.67 0.742 4.618 1.028 11.59 0.232 16.406-1.284 7.772 0.884 13.758-1.618 20.104-2.74 6.952-7.75 12.346-13.864 15.944-11.498 6.77-27.942 2.308-35.352-4.852-7.964-7.698-9.246-17.646-9.242-33.738-0.078-4.622-0.154-9.244-0.232-13.866-2.732-16.308-5.74-29.146-11.322-41.826-19.464-44.21-68.408-74.96-106.288-101.678-7.028-4.956-13.488-10.36-20.334-15.252-11.43-8.166-23.304-15.62-30.732-27.73-8.226-13.412-0.066-29.284 9.242-35.818 4.298-3.016 9.95-4.49 15.018-6.702 8.856-4.544 17.716-9.09 26.572-13.634 30.474-18.228 57.104-41.842 77.406-70.25 15.738-22.022 28.602-46.872 37.662-75.564 4.4-13.936 6.378-28.808 9.242-44.6 1.414-7.79 0.052-15.654 1.386-24.032 0.83-5.21 0.606-12.726-0.232-17.794-0.462-6.392-0.924-12.788-1.386-19.18-2.388-13.274-4.264-26.186-7.856-37.898-18.956-61.792-52.358-106.952-99.588-140.268-9.422-6.648-19.542-11.578-29.806-17.562-23.206-13.528-50.292-19.876-81.564-25.65-9.452-1.746-19.428-1.372-30.27-2.31-2.772-0.078-5.546-0.154-8.318-0.232-7.778 0.462-15.558 0.924-23.338 1.386-19.92 3.472-38.5 5.75-55.224 12.248-78.194 30.384-127.918 79.356-158.278 157.6-5.268 13.578-8.342 28.744-11.554 44.6-0.616 5.7-1.232 11.4-1.848 17.1-1.258 7.658-2.288 19.016-0.924 27.268 0.384 7.47 0.77 14.944 1.156 22.416 2.578 14.792 4.066 28.92 8.088 42.058 8.72 28.484 20.216 53.718 35.584 75.564 21.422 30.456 48.204 55.19 80.41 74.872 8.318 4.314 16.638 8.628 24.954 12.94 4.698 2.002 9.396 4.006 14.094 6.008 10.176 6.076 24.798 19.054 17.098 36.512-6.134 13.912-20.532 22.3-32.348 30.734-7.6 5.424-14.842 11.374-22.644 16.87-37.28 26.256-84.778 56.578-103.978 100.06-5.596 12.674-8.584 25.524-11.322 41.826-0.078 4.622-0.154 9.244-0.232 13.866 0.002 16.082-1.27 26.054-9.242 33.738-7.418 7.148-23.85 11.632-35.352 4.852-6.114-3.604-11.124-8.99-13.864-15.944-2.34-5.942-0.4-12.436-1.618-20.104-0.766-4.822-0.538-11.79 0.232-16.408 0.308-4.006 0.616-8.012 0.924-12.016 1.888-10.032 3.374-19.776 6.47-28.654 18.746-53.754 56.608-89.51 98.894-119.702 13.884-9.912 27.698-20.362 42.284-29.578-0.078-0.154-0.154-0.308-0.232-0.462-6.102-2.336-11.944-7.23-17.098-10.86-10.52-7.412-20.552-14.776-30.5-22.646-5.7-5.314-11.4-10.63-17.098-15.944-14.892-12.004-27.014-29.044-38.126-44.83-21.748-30.9-37.992-65.982-48.754-108.148-2.678-10.49-3.498-20.938-5.546-32.352-3.306-18.444-4.518-51.498-1.156-71.174 2.388-13.974 3.424-27.582 6.7-40.44 10.406-40.818 25.746-76.198 46.906-106.3 38.908-55.35 92.604-99.664 164.054-122.244 17.21-5.438 35.27-8.602 54.762-12.248C494.878 89.746 505.202 88.9 515.522 88.052zM406.23 476.506c21.99-0.172 24.388 9.958 30.962 24.958 2.552 5.824 6.414 11.192 10.166 15.944 14.296 18.102 36.962 26.31 64.698 31.196 6.708 1.182 16.1 1.364 22.876 0.232 7.344-1.228 13.632-1.126 20.102-2.774 22.558-5.742 41.34-16.516 53.144-33.046 7.274-10.184 9.598-26.52 20.564-33.046 16.862-10.034 44.336 2.296 40.436 23.108-2.728 14.552-10.474 27.29-17.792 37.666-19.688 27.92-47.756 45.984-85.724 55.692-8.13 2.078-16.794 2.436-25.648 3.928-2.926 0.078-5.854 0.154-8.78 0.232-12.96 2.06-34.188-1.508-44.594-4.16-27.726-7.066-47.96-18.668-67.008-33.97-14.542-11.682-25.248-29.202-32.81-47.834-2.732-6.732-6.066-17.264-1.618-24.958 2.91-5.034 7.716-9.08 13.402-11.324C401.146 477.738 403.688 477.122 406.23 476.506z" p-id="20215" fill="#707070"></path></svg>