<?xml version="1.0" standalone="no"?><!DOCTYPE svg PUBLIC "-//W3C//DTD SVG 1.1//EN" "http://www.w3.org/Graphics/SVG/1.1/DTD/svg11.dtd"><svg t="1551063585357" class="icon" style="" viewBox="0 0 1024 1024" version="1.1" xmlns="http://www.w3.org/2000/svg" p-id="20450" xmlns:xlink="http://www.w3.org/1999/xlink" width="200" height="200"><defs><style type="text/css"></style></defs><path d="M515.546 89.052c24.668-0.294 47.638 0.564 68.002 5.072 115.322 25.528 196.034 95.542 236.05 195.972 7.602 19.082 12.376 39.524 17.058 61.788 8.192 38.962 4.19 90.99-4.61 125.422-17.686 69.206-54.186 127.936-102.58 166.23-14.222 11.254-28.354 23.146-44.95 32.048 0.154 0.23 0.308 0.462 0.462 0.692 4.534 3.074 9.068 6.148 13.6 9.222 9.446 6.658 18.854 13.198 28.124 19.828 42.178 30.17 79.948 65.77 98.662 119.428 4.368 12.524 4.956 25.316 7.376 40.578 0.732 4.622 1.014 11.548 0.23 16.37-1.066 6.566 0.736 12.574-0.922 17.984-1.9 6.194-5.898 11.992-10.604 15.448-10.868 7.982-27.636 5.534-46.104 5.534-31.5 0.076-63.012 0.154-94.512 0.23-104.26 0.308-208.552 0.614-312.812 0.922-29.504 0.076-59.016 0.154-88.518 0.23-13.944 0-29.814 2.882-39.65-1.384-7.64-3.314-13.796-10.52-16.366-18.906-1.658-5.408 0.106-11.406-0.922-17.984-2.714-17.38 3.122-42.798 7.146-55.564 17.118-54.296 57.32-90.962 99.122-120.81 13.852-9.89 27.636-20.306 42.184-29.512-0.076-0.154-0.154-0.308-0.23-0.46-6.088-2.332-11.916-7.212-17.058-10.836-10.496-7.396-20.504-14.742-30.428-22.594-5.686-5.302-11.372-10.606-17.058-15.908-14.856-11.978-26.95-28.978-38.036-44.728-21.696-30.83-37.902-65.832-48.64-107.9-2.672-10.466-3.49-20.89-5.532-32.278-3.3-18.402-4.506-51.38-1.152-71.01 2.382-13.942 3.416-27.52 6.684-40.348 10.38-40.724 25.684-76.024 46.796-106.056 38.818-55.224 92.386-99.436 163.668-121.964 17.17-5.426 35.186-8.584 54.632-12.22C494.952 90.742 505.25 89.898 515.546 89.052zM406.05 475.694c-2.536 0.614-5.072 1.23-7.608 1.844-5.834 2.31-10.85 6.584-13.832 11.758-4.518 7.84-1.178 19.01 1.614 25.822 7.716 18.834 18.472 36.35 33.194 48.186 19.006 15.28 39.192 26.82 66.85 33.892 10.456 2.674 32.322 6.316 45.412 4.15 2.92-0.076 5.84-0.154 8.76-0.23 8.836-1.474 17.476-1.852 25.588-3.92 36.384-9.274 64.368-26.488 83.678-52.798 8.21-11.186 17.072-24.816 20.056-40.808 4.06-21.764-23.96-35.02-41.724-24.438-11.226 6.686-13.538 23-20.978 33.43-11.638 16.318-30.322 26.822-52.558 32.508-6.454 1.65-12.716 1.59-20.054 2.766-6.55 1.05-15.396 0.902-21.9-0.23-27.31-4.752-50.02-12.856-64.084-30.664-3.746-4.744-7.586-10.098-10.142-15.908C431.43 485.392 429.028 475.554 406.05 475.694z" p-id="20451" fill="#1296db"></path></svg>